<svg width="64" height="64" viewBox="0 0 64 64" fill="none" xmlns="http://www.w3.org/2000/svg">
<mask id="mask0_3081_865" style="mask-type:luminance" maskUnits="userSpaceOnUse" x="0" y="0" width="64" height="64">
<path d="M32 64C49.6731 64 64 49.6731 64 32C64 14.3269 49.6731 0 32 0C14.3269 0 0 14.3269 0 32C0 49.6731 14.3269 64 32 64Z" fill="white"/>
</mask>
<g mask="url(#mask0_3081_865)">
<path d="M22.1494 28.7196V13.305C22.1494 12.0374 23.1751 11.0117 24.4427 11.0117H37.264C38.5316 11.0117 39.5573 12.0374 39.5573 13.305V14.3211C40.825 14.3211 41.8507 15.3468 41.8507 16.6144V28.7196H22.1494Z" fill="#111010"/>
<path d="M20.7266 31.2065C20.7266 31.7 21.133 32.1065 21.6265 32.1065C21.82 32.1065 22.0038 32.0387 22.149 31.9323V30.4808C22.0038 30.3744 21.82 30.3066 21.6265 30.3066C21.1233 30.3066 20.7266 30.713 20.7266 31.2065Z" fill="#333333"/>
<path d="M43.2633 31.2065C43.2633 30.713 42.8569 30.3066 42.3634 30.3066C42.1699 30.3066 41.9957 30.3647 41.8506 30.4711V31.942C41.9957 32.0484 42.1699 32.1065 42.3634 32.1065C42.8569 32.1065 43.2633 31.7097 43.2633 31.2065Z" fill="#333333"/>
<path d="M42.3634 30.3071C42.8569 30.3071 43.2633 30.7135 43.2633 31.207C43.2633 31.7005 42.8569 32.1069 42.3634 32.1069C42.1699 32.1069 41.9957 32.0489 41.8506 31.9424V33.7035C42.0151 33.7422 42.1893 33.7519 42.3634 33.7519C43.7665 33.7519 44.9083 32.6101 44.9083 31.207C44.9083 29.8039 43.7665 28.6621 42.3634 28.6621C42.1893 28.6621 42.0151 28.6815 41.8506 28.7105V30.4716C41.9957 30.3748 42.1699 30.3071 42.3634 30.3071Z" fill="#99644F"/>
<path d="M32 46.8247C34.1869 46.8247 36.1996 46.1086 37.8349 44.9087C40.2734 43.1186 41.8507 40.2253 41.8507 36.974V33.7131V31.952V30.4812V28.72V22.7303C41.8507 19.6822 39.3735 17.2051 36.3254 17.2051H27.6747C24.6266 17.2051 22.1494 19.6822 22.1494 22.7303V28.72V30.4812V31.9326V33.6937V36.9644C22.1494 40.2253 23.7267 43.1089 26.1651 44.8991C27.8005 46.1086 29.8132 46.8247 32 46.8247ZM37.3705 29.1361C37.3705 29.4845 37.0899 29.7651 36.7415 29.7651C36.3931 29.7651 36.1125 29.4845 36.1125 29.1361V27.8201C36.1125 27.4718 36.3931 27.1912 36.7415 27.1912C37.0899 27.1912 37.3705 27.4718 37.3705 27.8201V29.1361ZM35.1062 20.7757H38.3865C39.0348 20.7757 39.5573 21.2982 39.5573 21.9465C39.5573 22.5949 39.0348 23.1174 38.3865 23.1174H35.1062C34.4579 23.1174 33.9353 22.5949 33.9353 21.9465C33.9353 21.3079 34.4579 20.7757 35.1062 20.7757ZM33.6741 33.9066C34.0031 33.9066 34.274 34.1776 34.274 34.5066C34.274 34.8356 34.0031 35.1065 33.6741 35.1065C33.3451 35.1065 33.0741 34.8356 33.0741 34.5066C33.0741 34.1776 33.3451 33.9066 33.6741 33.9066ZM30.9163 34.5066C30.9163 34.8356 30.6453 35.1065 30.3163 35.1065C29.9873 35.1065 29.7164 34.8356 29.7164 34.5066C29.7164 34.1776 29.9873 33.9066 30.3163 33.9066C30.6453 33.9066 30.9163 34.1776 30.9163 34.5066ZM25.6329 23.1174C24.9846 23.1174 24.4621 22.5949 24.4621 21.9465C24.4621 21.2982 24.9846 20.7757 25.6329 20.7757H28.9133C29.5616 20.7757 30.0841 21.2982 30.0841 21.9465C30.0841 22.5949 29.5616 23.1174 28.9133 23.1174H25.6329ZM26.649 27.8201C26.649 27.4718 26.9296 27.1912 27.2779 27.1912C27.6263 27.1912 27.9069 27.4718 27.9069 27.8201V29.1361C27.9069 29.4845 27.6263 29.7651 27.2779 29.7651C26.9296 29.7651 26.649 29.4845 26.649 29.1361V27.8201ZM26.7361 36.5676V36.4322H27.6553H36.3931H37.2447V36.5676C37.2447 37.3998 37.0511 38.1933 36.7028 38.8997C35.8416 40.6317 34.0514 41.8316 31.9904 41.8316C31.1775 41.8316 30.4034 41.6478 29.7164 41.3188C27.9553 40.4672 26.7361 38.6577 26.7361 36.5676Z" fill="#99644F"/>
<path d="M31.8353 38.8991H36.7123C37.0606 38.1928 37.2541 37.409 37.2541 36.5671V36.4316H36.4026V37.3896C36.4026 37.8347 36.0446 38.1928 35.5995 38.1928H28.4583C28.0131 38.1928 27.6551 37.8347 27.6551 37.3896V36.4316H26.7358V36.5671C26.7358 38.6572 27.9551 40.457 29.7162 41.3086V41.0086C29.7162 39.8474 30.6645 38.8991 31.8353 38.8991Z" fill="#840636"/>
<path d="M32.0095 49.3207C34.1867 49.3207 36.1994 48.6143 37.8251 47.4144V44.9082C36.1897 46.1081 34.1771 46.8241 31.9902 46.8241C29.8033 46.8241 27.7906 46.1081 26.1553 44.9082V47.3951C27.8003 48.6046 29.8226 49.3207 32.0095 49.3207Z" fill="#7F5242"/>
<path d="M31.9996 41.8314C34.0703 41.8314 35.8508 40.6412 36.712 38.8994H31.8351C30.6739 38.8994 29.7256 39.8477 29.7256 41.0089V41.3089C30.4126 41.6475 31.1771 41.8314 31.9996 41.8314Z" fill="#F22661"/>
<path d="M21.6364 54.3232H8.77637V65.935H55.2233V54.3232H42.3633H21.6364Z" fill="#88C7E2"/>
<path d="M21.6172 32.1069C21.1237 32.1069 20.7173 31.7005 20.7173 31.207C20.7173 30.7135 21.1237 30.3071 21.6172 30.3071C21.8107 30.3071 21.9945 30.3748 22.1397 30.4813V28.7202C21.9655 28.6815 21.7913 28.6621 21.6172 28.6621C20.2141 28.6621 19.0723 29.8039 19.0723 31.207C19.0723 32.6101 20.2141 33.7519 21.6172 33.7519C21.801 33.7519 21.9752 33.7326 22.1397 33.6939V31.9327C21.9945 32.0489 21.8204 32.1069 21.6172 32.1069Z" fill="#99644F"/>
<path d="M39.9151 51.2852H37.8346H26.1648H24.0747V54.3236H39.9151V51.2852Z" fill="#C5EDFF"/>
<path d="M37.8348 47.4149C36.1995 48.6147 34.1965 49.3211 32.0193 49.3211C29.8324 49.3211 27.8004 48.6051 26.165 47.3955V51.2854H37.8348V47.4149Z" fill="#99644F"/>
<path d="M28.4585 38.1928H35.5997C36.0448 38.1928 36.4029 37.8347 36.4029 37.3896V36.4316H27.665V37.3896C27.665 37.8347 28.0231 38.1928 28.4585 38.1928Z" fill="white"/>
<path d="M29.7158 34.5062C29.7158 34.8352 29.9868 35.1061 30.3158 35.1061C30.6448 35.1061 30.9157 34.8352 30.9157 34.5062C30.9157 34.1772 30.6448 33.9062 30.3158 33.9062C29.9868 33.9062 29.7158 34.1772 29.7158 34.5062Z" fill="#111010"/>
<path d="M33.6737 35.1061C34.0027 35.1061 34.2736 34.8352 34.2736 34.5062C34.2736 34.1772 34.0027 33.9062 33.6737 33.9062C33.3447 33.9062 33.0737 34.1772 33.0737 34.5062C33.0737 34.8352 33.3447 35.1061 33.6737 35.1061Z" fill="#111010"/>
<path d="M30.0937 21.9462C30.0937 21.2979 29.5712 20.7754 28.9228 20.7754H25.6425C24.9942 20.7754 24.4717 21.2979 24.4717 21.9462C24.4717 22.5946 24.9942 23.1171 25.6425 23.1171H28.9228C29.5615 23.1171 30.0937 22.5946 30.0937 21.9462Z" fill="#111010"/>
<path d="M35.1059 23.1171H38.3862C39.0345 23.1171 39.5571 22.5946 39.5571 21.9462C39.5571 21.2979 39.0345 20.7754 38.3862 20.7754H35.1059C34.4576 20.7754 33.9351 21.2979 33.9351 21.9462C33.9351 22.5946 34.4576 23.1171 35.1059 23.1171Z" fill="#111010"/>
<path d="M36.7413 27.1904C36.3929 27.1904 36.1123 27.471 36.1123 27.8194V29.1354C36.1123 29.4837 36.3929 29.7644 36.7413 29.7644C37.0896 29.7644 37.3702 29.4837 37.3702 29.1354V27.8194C37.3702 27.471 37.0896 27.1904 36.7413 27.1904Z" fill="#111010"/>
<path d="M27.2774 29.7546C27.6258 29.7546 27.9064 29.474 27.9064 29.1256V27.8096C27.9064 27.4613 27.6258 27.1807 27.2774 27.1807C26.9291 27.1807 26.6484 27.4613 26.6484 27.8096V29.1256C26.6484 29.474 26.9291 29.7546 27.2774 29.7546Z" fill="#111010"/>
</g>
</svg>
